<svg xmlns="http://www.w3.org/2000/svg" viewBox="0 0 350 117.74"><title>樂丘_logo</title><path d="M58.55,71.76c-3.34,2.09-12.86,6.73-16.56,5.8-2.14-.53-2.83-5-2.34-14.82.21-4.35,1-11.06,1.67-17.55.74-6.71,1.44-13,1.44-15.77,0-5.35,0-8.29-3-8.29-2.18,0-2.95,3.27-2.95,6.07a32.53,32.53,0,0,0,.3,3.71,44.48,44.48,0,0,1,.14,11.41c-.12,1-.27,2.21-.42,3.47-.92,7.44-2.18,17.63-1.8,24.06.44,7.43,1.26,8.74,3.08,11,1.6,2,5.22,1.7,7.82.84C48.11,81,55,77.45,59.19,75.34l2.32-1.18c2.12-1.06,3.75-2.55,4.06-3.71a1.17,1.17,0,0,0-.12-1C64.65,68.3,62.11,69.54,58.55,71.76Z" transform="translate(-35 -21.13)"/><path d="M73.72,77.81c1.14,3.68,7,8.71,16.29,8.33,8.35-.33,15.55-5,17.22-6.62,3-3,4.34-5.66,4.08-6.78a.7.7,0,0,0-.46-.52c-.84-.28-2,.88-3,1.9a13.2,13.2,0,0,1-1.29,1.19c-.42.31-10.39,7.68-18.78,6.7C80.3,81.13,77,78.34,77,73c0-4.73,2.6-11.65,4.56-12.14a3.24,3.24,0,0,1,2,.28,8,8,0,0,0,5.56.16,28.75,28.75,0,0,0,11-5.3,22.63,22.63,0,0,0,6.62-7.5,6.61,6.61,0,0,0-.43-7.4c-1.6-2.13-6-4.11-8.78-4.38-2.33-.23-6.07,1.94-11.43,6.63a26.67,26.67,0,0,0-4.51,5.81c-1.15,1.81-2,3.12-2.71,3.12s-1.29-.66-1.82-1.24c-.34-.38-.7-.77-.93-.77h0s-.1,0-.21.16c-.27.41-.08,1.82.14,3.3.12.87.26,1.86.33,2.82a16.53,16.53,0,0,1-.45,5.39,15.9,15.9,0,0,1-.64,1.62C74.08,66.35,71.8,71.63,73.72,77.81ZM91.69,44A11.57,11.57,0,0,1,100,41.73a3.61,3.61,0,0,1,2.56,1.38,3.66,3.66,0,0,1,.41,3c-.57,2.17-2.85,4.57-5.81,6.11-3.82,2-9.63,4.41-12.72,4.41a2.61,2.61,0,0,1-1.66-.43,1.35,1.35,0,0,1-.5-1.12C82.33,52.12,89.26,45.9,91.69,44Z" transform="translate(-35 -21.13)"/><path d="M137.14,75.34h0c-.84,0-1.4,1.5-1.63,4.3l0,.42c-.13,1.43-.24,2.78.43,3.46s2.25.8,3.85.4c.78-.19,1.56-.33,2.24-.45a6.69,6.69,0,0,0,1.71-.41c.39-.3.28-.92.12-1.39C143,79.25,139.14,75.34,137.14,75.34Z" transform="translate(-35 -21.13)"/><path d="M172.55,66.2A3.63,3.63,0,0,0,173,63a.22.22,0,0,0-.29-.11c-.13,0-.3.37-.5.75A8.4,8.4,0,0,1,171,65.51a13.37,13.37,0,0,1-2.19,1.72,8.33,8.33,0,0,0-2.41,2c-.67,1-.6,2.7-.53,4.5.09,2,.17,4-.67,5.68s-1.89,1.93-3.26,2.16a13.86,13.86,0,0,0-2.88.73,3.39,3.39,0,0,0-2,2.26c-.5,1.13-1.06,2.4-3,2.67s-3-.84-4.08-1.8a3.74,3.74,0,0,0-2.25-1.32,5.59,5.59,0,0,0-2.42.37,5.29,5.29,0,0,1-2.78.7c-.31,0-.52.16-.91.51a3.66,3.66,0,0,1-1,.7,2.55,2.55,0,0,1-1.55,0,1.85,1.85,0,0,0-1-.06,5.08,5.08,0,0,0-1,.7c-.78.61-1.66,1.3-2.69,1-2.88-1-3.32-3.92-3.79-7a26.38,26.38,0,0,0-1-4.57,6.54,6.54,0,0,0-2.62-3A8.71,8.71,0,0,1,123.59,69c-1.19-3.61-.35-8.65.59-10.92a14.51,14.51,0,0,1,1-1.76c1-1.55,2-3.3,1.55-5.46a20.22,20.22,0,0,1-.69-7.36c.32-1.78,2.62-3.32,4.65-4.68,1.27-.85,2.71-1.82,2.85-2.4a12.33,12.33,0,0,0,.26-1.78,4.31,4.31,0,0,1,1.16-3c.83-.83,2.08-.66,3.4-.47a6,6,0,0,0,3,0,6.81,6.81,0,0,0,2.27-2.15c1-1.22,2-2.47,3.34-2.47,1.11,0,2,.89,3,1.83s2.2,2.15,3.61,1.95a4.17,4.17,0,0,0,2.47-1.1,1.82,1.82,0,0,1,1.9-.55c1,.29,1.47,1.53,2,3a10.26,10.26,0,0,0,1.56,3.08,17,17,0,0,0,4.47,3.52c1.56.93,2.9,1.74,3.64,3.45.85,1.94.46,3.84,0,5.86a14.52,14.52,0,0,0-.44,4.53,8.19,8.19,0,0,0,1.69,4.25c.7,1,1.45,1.5,1.71,1.48,0,0,.07,0,.11-.09.22-.44-.25-1.35-.55-2a5.87,5.87,0,0,1-.36-.78l-.18-.46a13,13,0,0,1-.82-3.05,14.89,14.89,0,0,1,.46-5.49c.42-2,.82-3.88.05-5.65-.69-1.57-2-2.34-3.62-3.31a19.74,19.74,0,0,1-5.22-4.07,12.17,12.17,0,0,1-1.94-3.73c-.47-1.24-1-2.52-1.58-2.69s-.72,0-1.2.42a5.92,5.92,0,0,1-3.31,1.47c-2.08.3-3.58-1.17-4.91-2.46-.93-.91-1.81-1.76-2.64-1.76-1,0-2,1.16-2.94,2.38a8.33,8.33,0,0,1-3,2.75,7.77,7.77,0,0,1-3.89.12,12.11,12.11,0,0,0-1.67-.17,1.77,1.77,0,0,0-1.32.41,3.8,3.8,0,0,0-1,2.77,15.27,15.27,0,0,1-.3,2.15c-.24,1-1.82,2.16-3.65,3.46-2.16,1.53-4.6,3.26-4.86,4.83-.31,1.81.23,4.22,1,7.41.7,2.82-.7,5.1-1.84,6.93a13.57,13.57,0,0,0-1,1.85c-.84,2.06-1.84,7.53-.46,11.38a8.6,8.6,0,0,0,3.66,4.2c1.4,1,2.72,1.94,3.38,3.77a38.79,38.79,0,0,1,1.21,4.33c.84,3.51,1.5,6.27,4.37,7.13.68.2,1.52-.38,2.33-1a9,9,0,0,1,1.33-.81,2,2,0,0,1,1.43,0,1.06,1.06,0,0,0,.8,0,3.45,3.45,0,0,0,.91-.73,3,3,0,0,1,1.91-1.09h0a4.45,4.45,0,0,1,.79.12,2.22,2.22,0,0,0,1.61-.05,3.12,3.12,0,0,1,2.62-.28,7.93,7.93,0,0,1,3.95,2.13,2.37,2.37,0,0,0,2.85.69c1.29-.35,1.61-1.14,2-2.15a4.18,4.18,0,0,1,3.16-3c.77-.19,1.44-.33,2.11-.47,2.37-.5,3.17-.66,4.14-2.56.79-1.55.6-3.43.41-5.26s-.37-3.72.55-5.11a8,8,0,0,1,2.59-2.08l.08.13h0l-.08-.13A10,10,0,0,0,172.55,66.2Z" transform="translate(-35 -21.13)"/><path d="M164.6,50.45a1.45,1.45,0,0,0-.59-.16.55.55,0,0,0-.26.06c-.47.23-.73,1.28-1.16,3.1a5.71,5.71,0,0,1-.93,2.09,15.68,15.68,0,0,0-.86,1.5,12.41,12.41,0,0,0-.43,5.24,6.35,6.35,0,0,0,1.47,3.11l.28.37q1.55,2.14,2.55,2.16h0c1.07,0,2.9-2.51,3.39-5.2a3.25,3.25,0,0,0-.56-1.55,4.59,4.59,0,0,1-.78-2.44C167,56.38,166.25,51.15,164.6,50.45Z" transform="translate(-35 -21.13)"/><path d="M151.13,43.51a11.31,11.31,0,0,1-.54,2.4,4.09,4.09,0,0,1-1,1.31,7.17,7.17,0,0,0-2.12,3.57,1.57,1.57,0,0,0,.29,1.07,10.9,10.9,0,0,0,5.82,4.07c.71.18.82,1,.91,1.72s.21,1.57.89,1.84a.66.66,0,0,0,.56,0c1.14-.52,2.46-3.36,3.23-5.64.27-.79.57-1.56.84-2.24a11.7,11.7,0,0,0,.93-3c0-.85-.7-1.35-2.11-2.33l-.93-.66c-.55-.39-1.16-.85-1.78-1.31a22.92,22.92,0,0,0-3.94-2.66l-.2,0a.45.45,0,0,0-.26.08C151.38,41.85,151.27,42.62,151.13,43.51Z" transform="translate(-35 -21.13)"/><path d="M146.23,36.48l-.73-.25A4,4,0,0,1,144,35c-.49-.56-.91-1.07-1.46-1.07a1.09,1.09,0,0,0-.47.12c-.84.41-1,1.12-1.19,2a5.55,5.55,0,0,1-1,2.39,17.1,17.1,0,0,1-2,2.15c-.93.88-1.61,1.51-1.48,2.17a2.44,2.44,0,0,0,1.42,2.09c.22.13.46.28.74.48a4.21,4.21,0,0,1,1.31,1.81c.52,1.11,1,2.16,3.48,2.16.9,0,2.52-1.72,4.06-4.29s2.4-5,2-5.7C148.29,37.17,147.51,36.91,146.23,36.48Z" transform="translate(-35 -21.13)"/><path d="M130,42.46c-.34,0-3,1.7-3,3s.61,3,1.23,3.38a.31.31,0,0,0,.32,0c.82-.41,3-3.87,3-4.75V44a1.63,1.63,0,0,0-.28-1.19A1.9,1.9,0,0,0,130,42.46Z" transform="translate(-35 -21.13)"/><path d="M134.6,37a1.2,1.2,0,0,0,.59.89,3.74,3.74,0,0,0,2.32.31,4.16,4.16,0,0,0,1.39-2.65,1.45,1.45,0,0,0-.54-1.52.57.57,0,0,0-.32-.09,3.55,3.55,0,0,0-1.72,1C135.25,35.75,134.56,36.58,134.6,37Z" transform="translate(-35 -21.13)"/><path d="M143.93,32.08c0,.49,1,1.18,2.14,1.92l.91.62,1.12.82c.94.71,1.91,1.43,2.32,1.38,1.34-.2,3-2.72,3-3.85a.66.66,0,0,0-.21-.51c-.52-.48-2-.36-3-.28a8.91,8.91,0,0,1-1.07.06c-.82,0-1.1-.82-1.35-1.53s-.44-1.14-.85-1.14h0C145.59,29.62,143.93,30.81,143.93,32.08Z" transform="translate(-35 -21.13)"/><path d="M163.62,40.12A2.81,2.81,0,0,1,161,38.85a15.1,15.1,0,0,1-1.59-2.55,4.4,4.4,0,0,0-1.91-2.3.72.72,0,0,0-.29-.06,1,1,0,0,0-.58.22c-1.2.88-2.21,4-2,5.46.08.67,1.37,1.36,2.72,2.08.55.29,1.11.59,1.65.92A5.74,5.74,0,0,1,160.5,44c.38.46.66.79,1.05.79a3.26,3.26,0,0,0,2.06-1.57,3.61,3.61,0,0,0,.91-2.67C164.36,40.1,164.11,40.11,163.62,40.12Z" transform="translate(-35 -21.13)"/><path d="M164.82,46.32c-.09.75,1.64,2.9,2.58,3.4a.48.48,0,0,0,.47,0,1.51,1.51,0,0,0,.64-1.19,5.14,5.14,0,0,0-.24-1.55,4.76,4.76,0,0,1-.21-1.1,6.64,6.64,0,0,1,.24-1.47c.19-.81.28-1.29-.15-1.5a.92.92,0,0,0-.39-.09A1.55,1.55,0,0,0,167,43,4.91,4.91,0,0,0,164.82,46.32Z" transform="translate(-35 -21.13)"/><path d="M133,73.38a4.79,4.79,0,0,0-.42-3.44A6.3,6.3,0,0,0,128.32,67a1,1,0,0,0-.86.28c-.58.68-.78,3,.89,5.14a11.92,11.92,0,0,1,.67,1c.76,1.19,1.8,2.81,2.71,2.51A4.38,4.38,0,0,0,133,73.38Z" transform="translate(-35 -21.13)"/><path d="M131,63.52l.63.58c1.17,1.09,2.38,2.22,3.23,2.05.5-.1,1.39-2.09,2.25-4,.63-1.4,1.34-3,2.09-4.35a25.27,25.27,0,0,1,1.94-3,4.2,4.2,0,0,0,1.15-2.28c0-.5-.95-1-2-1.52-.58-.3-1.25-.63-1.87-1a12.71,12.71,0,0,1-1.88-1.47c-.76-.68-1.3-1.17-2-1.17-1.26,0-2,1.71-2.93,3.7-.29.65-.59,1.32-.93,2-.44.85-.89,1.55-1.29,2.18-1,1.49-1.67,2.57-1.36,4.39.22,1.37,1.34,2.37,2.63,3.53Z" transform="translate(-35 -21.13)"/><path d="M145.85,78.05a2.73,2.73,0,0,0,1.89.54c.81-.21,1.29-1.42,1.91-3a20.66,20.66,0,0,1,2-4.08c1.84-2.77,3.08-6.33,3.08-7.92,0-1.76-.89-2.08-2-2.48a5.25,5.25,0,0,1-2.37-1.41c-.59-.67-1.18-1.46-1.74-2.22-1.14-1.53-2.22-3-3.05-3.06h0c-.54,0-1,1.06-1.44,2.28a14.22,14.22,0,0,1-1.49,3c-.24.33-.51.65-.76,1a6.16,6.16,0,0,0-1.88,5.15,1.65,1.65,0,0,1-1,1.7c-.53.33-1,.6-.75,1.39C138.69,71.09,142.84,76.27,145.85,78.05Z" transform="translate(-35 -21.13)"/><path d="M159.64,70.3c-.18-1.87-.31-3.21-.81-3.41a.43.43,0,0,0-.19,0,.76.76,0,0,0-.49.23c-1.94,1.68-3.56,10.67-3.11,12.51a1.37,1.37,0,0,0,1.16,1,5.17,5.17,0,0,0,4.34-1.55c.76-1,.47-1.85.07-3.09a13.58,13.58,0,0,1-.54-2.12C159.86,72.54,159.74,71.35,159.64,70.3Z" transform="translate(-35 -21.13)"/><path d="M199.92,60.56c-1.3,6-.3,11.27,2.9,15.25C206.53,80.4,213,83,220.65,83c8.14,0,17-3.78,22.13-7.52,7.21-5.25,9.86-9.83,9.61-11a.29.29,0,0,0-.23-.26c-.32-.08-1.42,1-2.69,2.2a51.67,51.67,0,0,1-8.74,7.11c-8,4.88-15.93,7.16-21.88,6.24-6.12-.94-10.41-3.24-12.76-6.83s-2.77-8.59-1.14-14.69a39.8,39.8,0,0,1,7.53-15c3.56-4.21,7.59-6.34,11.29-6,4.54.41,7.77,1.74,9.36,3.85a5.8,5.8,0,0,1,1,4.78c-.54,2.89-.39,4.76.46,5.71a2.84,2.84,0,0,0,2.49.77,3.15,3.15,0,0,0,2.42-1.85,9.53,9.53,0,0,0-.32-8.58c-2.13-3.84-8-9.14-15.66-9.14a16.29,16.29,0,0,0-3.28.33C209.86,35.17,202.56,48.38,199.92,60.56Z" transform="translate(-35 -21.13)"/><path d="M295.93,82.6a4,4,0,0,0-1.61-3.73c-1.44-1.06-1-10.34-.64-19.31.05-1,.09-2.05.13-3,.27-6.37-1.5-10.51-5.24-12.3-3-1.41-10.56,7.77-16.69,16.83a89.22,89.22,0,0,0-5.41,9.41c-1.64,3.17-2.23,4.25-2.79,4-1.11-.56.43-12.27,1.25-17,1-5.66,1.48-21.31-.44-27-1-3.09-2.78-5.2-3.89-5.46a.73.73,0,0,0-.74.18c-.38.39-.21,1.29,1.38,7.41a66.12,66.12,0,0,1,1.33,17.38c-.22,3.58-.77,7.69-1.3,11.65-.36,2.68-.7,5.21-.92,7.46-.77,7.86.28,13,1.72,14.08a.88.88,0,0,0,.77.15c2.07-.54,5.13-7.1,7.83-12.89,1.48-3.19,2.89-6.19,4.06-8.1,3.7-6,9.36-12.8,12.55-13.55a2.2,2.2,0,0,1,.56-.07,1.64,1.64,0,0,1,.88.24c2.31,1.45,1.89,10.39,1.49,19-.23,4.81-.44,9.36-.09,11.74s1.14,3.84,2.33,4.53a2.8,2.8,0,0,0,2.35.23A2,2,0,0,0,295.93,82.6Z" transform="translate(-35 -21.13)"/><path d="M321.82,23.71a6.67,6.67,0,0,0-2.75-2.26l-.21,0a.56.56,0,0,0-.36.12,4.58,4.58,0,0,0-.66,1,21.18,21.18,0,0,1-3.32,4.35,101.23,101.23,0,0,0-8,8.83c0,.11,0,.21,0,.23.87.5,9.49-6.06,13.53-10l.45-.38C321.11,25,322.09,24.24,321.82,23.71Z" transform="translate(-35 -21.13)"/><path d="M312.66,81.7c4.87.9,13.77-5.77,16.73-9.72,1.36-1.81,1.76-3.38,1.35-3.79-.17-.18-1.64.69-4.23,3.11C322.1,75.41,315,78.89,313,77.08c-2.55-2.29-.74-11.33.84-17.93.89-3.7,1.95-11.58.9-14.12-.43-1.05-1.11-1.62-1.89-1.62l-.34,0A1.8,1.8,0,0,0,311,45c0,.82.09,1.72.18,2.68a23.52,23.52,0,0,1-.19,7.57,88.05,88.05,0,0,0-2.21,16.41C308.86,78.3,310,81.21,312.66,81.7Z" transform="translate(-35 -21.13)"/><path d="M368.77,74.27c.72,3.47,2.87,5.9,6.57,7.44,2.69,1.11,6.6-.59,8.28-2.19.88-.84,1.63-2.28,1.3-2.93a.46.46,0,0,0-.35-.27,3.31,3.31,0,0,0-2.08.77c-1.92,1.47-3.9,3-8.17.45-4.95-2.94-3.16-12.77-2.3-17.49.52-2.86,2.18-6.08,3.39-8.42.84-1.62,1.56-3,1.5-3.53a3.75,3.75,0,0,0-1.5-2.68,1.92,1.92,0,0,0-1.83.13c-.64.33-1.13,1.81-1.75,3.68-.93,2.77-2.19,6.58-4.87,9.62-7,7.92-18,17.5-20.51,18.26a2.21,2.21,0,0,1-2.09-.29c-1.14-.86-1.72-3-1.67-6.08,0-.52,0-1.17,0-1.91.06-4.7.16-13.45.86-18.11.47-3.1.13-5.38-.91-6.09a1.36,1.36,0,0,0-1.52,0c-1.34.76-1.19,1.54-1,2.62a7.76,7.76,0,0,1,.16,1.24,80.5,80.5,0,0,1-.74,13.91A56.91,56.91,0,0,0,339,72.51c.27,4.94,2.69,8.89,5.64,9.19,3.26.31,8.69-5.19,15.59-12.18,2.36-2.38,4.8-4.85,7.39-7.33a.44.44,0,0,1,.31-.15l.11,0c.17.07.27.29.29.68s0,1,0,1.85A43.16,43.16,0,0,0,368.77,74.27Z" transform="translate(-35 -21.13)"/><path d="M74.18,125.52a1.07,1.07,0,0,1,.34.81,1.13,1.13,0,0,1-.34.83,1.15,1.15,0,0,1-.85.34H61.2a.14.14,0,0,0-.12.08s0,.09,0,.11a27.28,27.28,0,0,0,5.75,4.36,36,36,0,0,0,7,3.17.75.75,0,0,1,.58.58,1,1,0,0,1-.19.84,2.16,2.16,0,0,1-1,.71,1.55,1.55,0,0,1-1.16,0,39.83,39.83,0,0,1-7.47-3.8,29.14,29.14,0,0,1-6.08-5.11.24.24,0,0,0-.14,0s-.05,0-.05.1v8.72a1.25,1.25,0,0,1-.39.92,1.3,1.3,0,0,1-1.84,0,1.25,1.25,0,0,1-.39-.92v-8.91c0-.05,0-.08-.05-.1a.24.24,0,0,0-.14,0,30.3,30.3,0,0,1-6,5.32,38.08,38.08,0,0,1-7.39,4,1.58,1.58,0,0,1-1.15,0,2,2,0,0,1-1-.65,1,1,0,0,1-.23-.62.66.66,0,0,1,0-.23.92.92,0,0,1,.53-.65,36.28,36.28,0,0,0,6.92-3.32,27.81,27.81,0,0,0,5.6-4.44.07.07,0,0,0,0-.11s-.06-.08-.11-.08H41a1.15,1.15,0,0,1-.85-.34,1.13,1.13,0,0,1-.34-.83,1.07,1.07,0,0,1,.34-.81,1.21,1.21,0,0,1,.85-.32H55.52c.17,0,.26-.1.26-.31V122.2a.24.24,0,0,0-.26-.27H51.79a0,0,0,0,0,0,0,.47.47,0,0,1-.34.62l-.5.19a.78.78,0,0,1-.71,0,.82.82,0,0,1-.45-.58c-.1-.3-.21-.66-.34-1.07a.27.27,0,0,0-.35-.19c-5.07.76-7.66,1.16-7.79,1.19a1.09,1.09,0,0,1-.85-.21,1.07,1.07,0,0,1-.42-.75,1.2,1.2,0,0,1,.25-.85,1,1,0,0,1,.75-.42l.69-.08a.47.47,0,0,0,.35-.23c.84-1.15,1.78-2.6,2.8-4.34a.41.41,0,0,0,0-.5,29.66,29.66,0,0,0-3.8-3.88.94.94,0,0,1-.39-.69,1.14,1.14,0,0,1,.2-.76.92.92,0,0,1,.65-.37,1,1,0,0,1,.73.17,1.06,1.06,0,0,1,.19.16c.08,0,.14,0,.19-.08a47.64,47.64,0,0,0,2.35-5.11,1.05,1.05,0,0,1,.57-.65,1.14,1.14,0,0,1,.87,0A1,1,0,0,1,47,104a.9.9,0,0,1,0,.8c-1,2.18-1.94,4-2.84,5.61a.35.35,0,0,0,0,.46,18.44,18.44,0,0,1,1.76,1.85c.13.15.25.15.35,0q.91-1.7,1.65-3.27a1.14,1.14,0,0,1,.62-.56,1.16,1.16,0,0,1,.84,0,1,1,0,0,1,.58.58,1,1,0,0,1,0,.81,91.57,91.57,0,0,1-5.38,8.94.22.22,0,0,0,0,.16s.08.06.16,0l3.64-.39c.21,0,.27-.12.2-.3-.31-.7-.59-1.28-.85-1.77a.87.87,0,0,1,0-.69.73.73,0,0,1,.48-.46.94.94,0,0,1,.77,0,1.1,1.1,0,0,1,.58.5,30.66,30.66,0,0,1,2,4.76s.05,0,.08,0a0,0,0,0,0,0,0V109a2.23,2.23,0,0,1,.65-1.59,2.15,2.15,0,0,1,1.61-.67h1.08a.35.35,0,0,0,.38-.27q.39-1.15.66-2.31a1.42,1.42,0,0,1,.57-.88,1.34,1.34,0,0,1,.73-.23.59.59,0,0,1,.23,0,1,1,0,0,1,.77.52,1,1,0,0,1,.08.9l-.69,2a.18.18,0,0,0,0,.19.19.19,0,0,0,.17.08h2.57a2.14,2.14,0,0,1,1.61.67A2.2,2.2,0,0,1,62.7,109v.69a.06.06,0,0,0,0,.06.09.09,0,0,0,.1,0l.19-.23a1.28,1.28,0,0,1,.94-.52,1.24,1.24,0,0,1,1,.37c.1.08.18.06.23,0a48.29,48.29,0,0,0,2.46-5.3,1,1,0,0,1,.58-.61,1.07,1.07,0,0,1,.84,0,1,1,0,0,1,.6.57,1.09,1.09,0,0,1,0,.85q-1.57,3.42-3,5.8a.35.35,0,0,0,0,.46c.54.56,1.07,1.15,1.61,1.77.13.15.24.15.35,0,.71-1.36,1.28-2.46,1.69-3.31a1.05,1.05,0,0,1,.63-.59,1.13,1.13,0,0,1,.9,0,.9.9,0,0,1,.54.57,1.09,1.09,0,0,1,0,.85c-1.94,3.5-3.79,6.53-5.53,9.06a.2.2,0,0,0,0,.15c0,.06.06.07.12,0l4.14-.34c.21,0,.27-.13.2-.31-.36-.79-.73-1.55-1.12-2.27a.77.77,0,0,1-.06-.69.76.76,0,0,1,.48-.46,1.19,1.19,0,0,1,.81,0,1.16,1.16,0,0,1,.62.52,28,28,0,0,1,2.53,5.68.75.75,0,0,1,.08.31,1.06,1.06,0,0,1-.12.5,1.23,1.23,0,0,1-.65.58.86.86,0,0,1-.75,0,1,1,0,0,1-.48-.58c-.1-.38-.22-.75-.35-1.11a.32.32,0,0,0-.38-.23c-2.46.31-5,.65-7.72,1a1.29,1.29,0,0,1-.88-.25,1.16,1.16,0,0,1-.46-.75,1,1,0,0,1,.23-.87,1.07,1.07,0,0,1,.77-.4h.19a.72.72,0,0,0,.27-.15q1.45-2,2.84-4.42a.45.45,0,0,0,0-.5,33.83,33.83,0,0,0-4.3-4.61.22.22,0,0,0-.16,0,.13.13,0,0,0-.07.12v9.37a2.2,2.2,0,0,1-.66,1.59,2.14,2.14,0,0,1-1.61.67H58.66c-.18,0-.26.09-.26.27v2.69c0,.21.08.31.26.31H73.33A1.21,1.21,0,0,1,74.18,125.52ZM54.13,108.84a.24.24,0,0,0-.27.27V113a.24.24,0,0,0,.27.27h6q.3,0,.3-.27v-3.87q0-.27-.3-.27Zm0,6.45a.24.24,0,0,0-.27.27v4a.24.24,0,0,0,.27.27h6q.3,0,.3-.27v-4q0-.27-.3-.27Z" transform="translate(-35 -21.13)"/><path d="M166.74,134.15a.24.24,0,0,0,.27.26h8.29a1.33,1.33,0,0,1,1.31,1.29,1.2,1.2,0,0,1-.39.9,1.23,1.23,0,0,1-.92.39H142.77a1.25,1.25,0,0,1-.92-.39,1.19,1.19,0,0,1-.38-.9,1.21,1.21,0,0,1,.38-.9,1.25,1.25,0,0,1,.92-.39h4.73a.24.24,0,0,0,.27-.26V109.22a1.68,1.68,0,0,1,1.65-1.69,3.47,3.47,0,0,1,.42,0,1.41,1.41,0,0,0,.54,0A110.08,110.08,0,0,0,168,104a2.58,2.58,0,0,1,.85-.15,2.09,2.09,0,0,1,1.57.73.88.88,0,0,1,.27.88.84.84,0,0,1-.61.65,118.37,118.37,0,0,1-19.43,3.84.3.3,0,0,0-.27.35v6.37c0,.21.09.31.27.31h22.77a1.21,1.21,0,0,1,.88.37,1.15,1.15,0,0,1,.39.88,1.16,1.16,0,0,1-.39.88,1.21,1.21,0,0,1-.88.37H167q-.27,0-.27.3Zm-16.09-14.71q-.27,0-.27.3v14.41a.24.24,0,0,0,.27.26h13.13a.24.24,0,0,0,.27-.26V119.74q0-.3-.27-.3Z" transform="translate(-35 -21.13)"/><path d="M278,106.51a1.11,1.11,0,0,1,0,1.62,1.16,1.16,0,0,1-.8.32H248.46a.27.27,0,0,0-.3.31v9.49q0,12.59-3,19.35a.84.84,0,0,1-.65.5,1.12,1.12,0,0,1-.85-.19,1.55,1.55,0,0,1-.57-.81,2.12,2.12,0,0,1,0-.42,2,2,0,0,1,.07-.54q2.58-6,2.58-17.89v-9.8a2.19,2.19,0,0,1,.65-1.59,2.15,2.15,0,0,1,1.61-.67h12.33a.27.27,0,0,0,.31-.31v-1.69a1.34,1.34,0,0,1,.38-1,1.31,1.31,0,0,1,.94-.38,1.29,1.29,0,0,1,.94.38,1.3,1.3,0,0,1,.39,1v1.69c0,.21.1.31.3.31h13.64A1.16,1.16,0,0,1,278,106.51Zm-18,27.75a.3.3,0,0,0,0,.19c0,.05.08.07.16,0l3.84-.42a.93.93,0,0,1,.71.23.87.87,0,0,1,.32.69,1.12,1.12,0,0,1-.29.79,1.21,1.21,0,0,1-.71.4L249.77,138a1.28,1.28,0,0,1-.83-.23,1.31,1.31,0,0,1-.48-.73v-.2a1,1,0,0,1,.2-.61.9.9,0,0,1,.73-.42l10.1-1.19s0,0,0,0,0,0,0,0a1.29,1.29,0,0,1-.89-.73,1.4,1.4,0,0,1,0-1.15c.34-.9.63-1.77.89-2.61a1.1,1.1,0,0,1,.52-.68,1.08,1.08,0,0,1,.86-.13,1,1,0,0,1,.69,1.34C260.83,132.39,260.34,133.62,260.06,134.26Zm4.05-21.6a1,1,0,0,1,0,1.38.92.92,0,0,1-.67.29h-5.18c-.21,0-.31.09-.31.27v2.26a.27.27,0,0,0,.31.31h4.53a1,1,0,0,1,.67.27.88.88,0,0,1,.29.67.94.94,0,0,1-.29.69.9.9,0,0,1-.67.29H251a.88.88,0,0,1-.67-.29.91.91,0,0,1-.29-.69.85.85,0,0,1,.29-.67.94.94,0,0,1,.67-.27h4.26a.27.27,0,0,0,.31-.31V114.6c0-.18-.1-.27-.31-.27h-4.91a1,1,0,0,1-.71-.29,1,1,0,0,1,0-1.38,1,1,0,0,1,.71-.29h4.91a.27.27,0,0,0,.31-.31V110.8a1.15,1.15,0,0,1,.34-.85,1.16,1.16,0,0,1,.85-.34,1.14,1.14,0,0,1,.84.34,1.15,1.15,0,0,1,.35.85v1.26a.27.27,0,0,0,.31.31h5.18A.92.92,0,0,1,264.11,112.66Zm-3.09,8.7a2.14,2.14,0,0,1,1.61.67,2.2,2.2,0,0,1,.66,1.59v2.46a2.17,2.17,0,0,1-.66,1.59,2.14,2.14,0,0,1-1.61.68h-8.33a2.14,2.14,0,0,1-1.61-.68,2.17,2.17,0,0,1-.66-1.59v-2.46a2.2,2.2,0,0,1,.66-1.59,2.14,2.14,0,0,1,1.61-.67Zm-6.1,11.86a1.08,1.08,0,0,1-.16.87,1,1,0,0,1-.73.48,1,1,0,0,1-.82-.16,1.07,1.07,0,0,1-.45-.69,17.56,17.56,0,0,0-.92-3,.86.86,0,0,1,0-.75.81.81,0,0,1,.58-.44,1.22,1.22,0,0,1,.88.09,1.33,1.33,0,0,1,.62.64A19,19,0,0,1,254.92,133.22Zm5.83-6.64a.24.24,0,0,0,.27-.27v-2.92q0-.3-.27-.3h-7.87q-.27,0-.27.3v2.92a.24.24,0,0,0,.27.27Zm16.75-10.41a1.13,1.13,0,0,1,.8.33,1.08,1.08,0,0,1,.35.81,1.06,1.06,0,0,1-.35.8,1.13,1.13,0,0,1-.8.33h-1.58a.28.28,0,0,0-.31.31v16.78a4.08,4.08,0,0,1-.3,1.78,2.14,2.14,0,0,1-1.12.94,16.81,16.81,0,0,1-4.53.39,1.48,1.48,0,0,1-1-.35,2,2,0,0,1-.61-.88.82.82,0,0,1,.77-1.11h3.57a.94.94,0,0,0,.67-.18.83.83,0,0,0,.17-.59V118.75c0-.21-.1-.31-.3-.31h-6.8a1.13,1.13,0,0,1-1.12-1.13,1.1,1.1,0,0,1,.33-.81,1.07,1.07,0,0,1,.79-.33H273q.3,0,.3-.27v-5a1.15,1.15,0,0,1,.35-.84,1.12,1.12,0,0,1,.82-.35,1.18,1.18,0,0,1,1.17,1.19v5c0,.18.11.27.31.27Zm-6.84,12.33a1.25,1.25,0,0,1,0,.35,1.31,1.31,0,0,1-.15.57,1.4,1.4,0,0,1-.73.62,1.9,1.9,0,0,1-.35,0A1,1,0,0,1,269,130a1,1,0,0,1-.54-.69,31.22,31.22,0,0,0-2.34-6.11.9.9,0,0,1-.12-.42.82.82,0,0,1,.08-.35.78.78,0,0,1,.58-.53,1,1,0,0,1,.38-.08,1.11,1.11,0,0,1,.46.11,1,1,0,0,1,.65.58A32.43,32.43,0,0,1,270.66,128.5Z" transform="translate(-35 -21.13)"/><path d="M379.83,122.39a1,1,0,0,1,.32.77,1,1,0,0,1-.32.77,1.09,1.09,0,0,1-.79.31h-15.9c-.2,0-.32.09-.34.27-.13.94-.3,1.87-.5,2.76,0,.18.05.27.23.27H374a2,2,0,0,1,1.54.69,1.86,1.86,0,0,1,.53,1.31v.27a49.94,49.94,0,0,1-.86,5.62,5.11,5.11,0,0,1-1.13,2.48,4,4,0,0,1-2.54.92c-.43,0-.89,0-1.38,0-.82,0-1.73,0-2.73-.08a1.43,1.43,0,0,1-.88-.38,1.86,1.86,0,0,1-.54-.85.85.85,0,0,1,.1-.71.6.6,0,0,1,.59-.29c1.41.11,2.69.16,3.84.16a2.13,2.13,0,0,0,1.46-.39c.62-.48,1.12-2.61,1.5-6.37,0-.21-.06-.31-.27-.31H361.91a.35.35,0,0,0-.38.27,13.49,13.49,0,0,1-3.36,5.07,16.53,16.53,0,0,1-5.94,3.38,1.31,1.31,0,0,1-1,0,1.76,1.76,0,0,1-.83-.67.79.79,0,0,1-.15-.75.78.78,0,0,1,.54-.56,16.56,16.56,0,0,0,4.18-2,10.34,10.34,0,0,0,2.79-2.72,13.12,13.12,0,0,0,1.61-3.25,21.92,21.92,0,0,0,.86-3.91q0-.27-.27-.27h-8.1a.32.32,0,0,0-.35.3c-.58,5.1-2,9.2-4.14,12.29a1.11,1.11,0,0,1-.85.48,1.3,1.3,0,0,1-1-.25,1.15,1.15,0,0,1-.53-.8.66.66,0,0,1,0-.23,1.19,1.19,0,0,1,.23-.69,19.24,19.24,0,0,0,2.13-3.9,21.67,21.67,0,0,0,1.25-4.4q.38-2.27.51-4.11c.09-1.23.14-2.57.14-4v-6.45a2.24,2.24,0,0,1,.65-1.6,2.19,2.19,0,0,1,1.61-.67h23.12a2.29,2.29,0,0,1,2.27,2.27v3.72a2.21,2.21,0,0,1-.67,1.62,2.24,2.24,0,0,1-1.6.65h-9c-.18,0-.27.1-.27.31v3c0,.2.09.31.27.31H379A1.13,1.13,0,0,1,379.83,122.39ZM378,105a1.13,1.13,0,0,1,.85.36,1.22,1.22,0,0,1,.35.85,1.18,1.18,0,0,1-.35.84,1.1,1.1,0,0,1-.85.37H347.55a1.11,1.11,0,0,1-.85-.37,1.17,1.17,0,0,1-.34-.84,1.21,1.21,0,0,1,.34-.85,1.14,1.14,0,0,1,.85-.36Zm-25.88,13.48a.28.28,0,0,0-.31.31v.19c0,.61,0,1.56,0,2.84,0,.2.06.31.26.31h10.49c.18,0,.27-.11.27-.31v-3c0-.21-.09-.31-.27-.31Zm22.24-5.92a.24.24,0,0,0-.27-.26h-22c-.2,0-.31.09-.31.26v3.61c0,.18.11.27.31.27h22a.24.24,0,0,0,.27-.27Z" transform="translate(-35 -21.13)"/></svg>